HIERARCHY
ROOT Hips
{
    OFFSET   0.000000   0.000000   0.000000
    CHANNELS 6 Xposition Yposition Zposition Zrotation Xrotation Yrotation
    JOINT Chest
    {
        OFFSET   0.000000   8.007240   0.000000
        CHANNELS 3 Zrotation Xrotation Yrotation
        JOINT Chest2
        {
            OFFSET   0.000000  22.077100   0.000000
            CHANNELS 3 Zrotation Xrotation Yrotation
            JOINT Neck
            {
                OFFSET   0.000000  23.254800   0.000000
                CHANNELS 3 Zrotation Xrotation Yrotation
                JOINT Head
                {
                    OFFSET   0.000000  14.370000   1.956600
                    CHANNELS 3 Zrotation Xrotation Yrotation
                    End Site
                    {
                        OFFSET   0.000000  19.566000   0.000000
                    }
                }
            }
            JOINT LeftCollar
            {
                OFFSET   3.911900  19.017000  -0.467064
                CHANNELS 3 Zrotation Xrotation Yrotation
                JOINT LeftShoulder
                {
                    OFFSET  10.383700   0.000000   0.000000
                    CHANNELS 3 Zrotation Xrotation Yrotation
                    JOINT LeftElbow
                    {
                        OFFSET  26.662100   0.001476   0.000517
                        CHANNELS 3 Zrotation Xrotation Yrotation
                        JOINT LeftWrist
                        {
                            OFFSET  28.869000  -0.000025  -0.000106
                            CHANNELS 3 Zrotation Xrotation Yrotation
                            JOINT LeftFinger0
                            {
                                OFFSET   2.044660  -2.323460   3.252850
                                CHANNELS 3 Zrotation Xrotation Yrotation
                                JOINT LeftFinger01
                                {
                                    OFFSET   3.088130   0.000000   0.000000
                                    CHANNELS 3 Zrotation Xrotation Yrotation
                                    JOINT LeftFinger02
                                    {
                                        OFFSET   2.639460   0.000000   0.000000
                                        CHANNELS 3 Zrotation Xrotation Yrotation
                                        End Site
                                        {
                                            OFFSET   2.582190   0.000000   0.000000
                                        }
                                    }
                                }
                            }
                            JOINT LeftFinger1
                            {
                                OFFSET   8.364480   0.000000   3.252850
                                CHANNELS 3 Zrotation Xrotation Yrotation
                                JOINT LeftFinger11
                                {
                                    OFFSET   4.646930   0.000000   0.000000
                                    CHANNELS 3 Zrotation Xrotation Yrotation
                                    JOINT LeftFinger12
                                    {
                                        OFFSET   2.323460   0.000000   0.000000
                                        CHANNELS 3 Zrotation Xrotation Yrotation
                                        End Site
                                        {
                                            OFFSET   2.273050   0.000000   0.000000
                                        }
                                    }
                                }
                            }
                            JOINT LeftFinger2
                            {
                                OFFSET   8.364490   0.000015   1.078090
                                CHANNELS 3 Zrotation Xrotation Yrotation
                                JOINT LeftFinger21
                                {
                                    OFFSET   5.111620   0.000000   0.000000
                                    CHANNELS 3 Zrotation Xrotation Yrotation
                                    JOINT LeftFinger22
                                    {
                                        OFFSET   2.788160   0.000016   0.000000
                                        CHANNELS 3 Zrotation Xrotation Yrotation
                                        End Site
                                        {
                                            OFFSET   2.727660   0.000000   0.000000
                                        }
                                    }
                                }
                            }
                            JOINT LeftFinger3
                            {
                                OFFSET   7.899780   0.000017  -1.078090
                                CHANNELS 3 Zrotation Xrotation Yrotation
                                JOINT LeftFinger31
                                {
                                    OFFSET   4.646930   0.000000   0.000000
                                    CHANNELS 3 Zrotation Xrotation Yrotation
                                    JOINT LeftFinger32
                                    {
                                        OFFSET   2.323470   0.000000   0.000000
                                        CHANNELS 3 Zrotation Xrotation Yrotation
                                        End Site
                                        {
                                            OFFSET   2.273050   0.000000   0.000000
                                        }
                                    }
                                }
                            }
                            JOINT LeftFinger4
                            {
                                OFFSET   7.435090   0.000000  -3.252850
                                CHANNELS 3 Zrotation Xrotation Yrotation
                                JOINT LeftFinger41
                                {
                                    OFFSET   3.717550   0.000000   0.000000
                                    CHANNELS 3 Zrotation Xrotation Yrotation
                                    JOINT LeftFinger42
                                    {
                                        OFFSET   1.858770   0.000000   0.000000
                                        CHANNELS 3 Zrotation Xrotation Yrotation
                                        End Site
                                        {
                                            OFFSET   1.818440   0.000000   0.000000
                                        }
                                    }
                                }
                            }
                        }
                    }
                }
            }
            JOINT RightCollar
            {
                OFFSET  -3.911900  19.017000  -0.467063
                CHANNELS 3 Zrotation Xrotation Yrotation
                JOINT RightShoulder
                {
                    OFFSET -10.383700   0.000019   0.000000
                    CHANNELS 3 Zrotation Xrotation Yrotation
                    JOINT RightElbow
                    {
                        OFFSET -26.662100   0.001175   0.000102
                        CHANNELS 3 Zrotation Xrotation Yrotation
                        JOINT RightWrist
                        {
                            OFFSET -28.869000   0.000016  -0.000079
                            CHANNELS 3 Zrotation Xrotation Yrotation
                            JOINT RightFinger0
                            {
                                OFFSET  -2.044660  -2.323490   3.252850
                                CHANNELS 3 Zrotation Xrotation Yrotation
                                JOINT RightFinger01
                                {
                                    OFFSET  -3.088140   0.000000   0.000000
                                    CHANNELS 3 Zrotation Xrotation Yrotation
                                    JOINT RightFinger02
                                    {
                                        OFFSET  -2.639460   0.000000   0.000000
                                        CHANNELS 3 Zrotation Xrotation Yrotation
                                        End Site
                                        {
                                            OFFSET  -2.582190   0.000000   0.000000
                                        }
                                    }
                                }
                            }
                            JOINT RightFinger1
                            {
                                OFFSET  -8.364480   0.000000   3.252850
                                CHANNELS 3 Zrotation Xrotation Yrotation
                                JOINT RightFinger11
                                {
                                    OFFSET  -4.646930   0.000000   0.000000
                                    CHANNELS 3 Zrotation Xrotation Yrotation
                                    JOINT RightFinger12
                                    {
                                        OFFSET  -2.323470   0.000000   0.000000
                                        CHANNELS 3 Zrotation Xrotation Yrotation
                                        End Site
                                        {
                                            OFFSET  -2.273050   0.000000   0.000000
                                        }
                                    }
                                }
                            }
                            JOINT RightFinger2
                            {
                                OFFSET  -8.364480   0.000000   1.078090
                                CHANNELS 3 Zrotation Xrotation Yrotation
                                JOINT RightFinger21
                                {
                                    OFFSET  -5.111620   0.000000   0.000000
                                    CHANNELS 3 Zrotation Xrotation Yrotation
                                    JOINT RightFinger22
                                    {
                                        OFFSET  -2.788160   0.000000   0.000000
                                        CHANNELS 3 Zrotation Xrotation Yrotation
                                        End Site
                                        {
                                            OFFSET  -2.727660   0.000000   0.000000
                                        }
                                    }
                                }
                            }
                            JOINT RightFinger3
                            {
                                OFFSET  -7.899780   0.000000  -1.078090
                                CHANNELS 3 Zrotation Xrotation Yrotation
                                JOINT RightFinger31
                                {
                                    OFFSET  -4.646930   0.000000   0.000000
                                    CHANNELS 3 Zrotation Xrotation Yrotation
                                    JOINT RightFinger32
                                    {
                                        OFFSET  -2.323470   0.000000   0.000000
                                        CHANNELS 3 Zrotation Xrotation Yrotation
                                        End Site
                                        {
                                            OFFSET  -2.273050   0.000000   0.000000
                                        }
                                    }
                                }
                            }
                            JOINT RightFinger4
                            {
                                OFFSET  -7.435090   0.000000  -3.252850
                                CHANNELS 3 Zrotation Xrotation Yrotation
                                JOINT RightFinger41
                                {
                                    OFFSET  -3.717550   0.000000   0.000000
                                    CHANNELS 3 Zrotation Xrotation Yrotation
                                    JOINT RightFinger42
                                    {
                                        OFFSET  -1.858770   0.000000   0.000000
                                        CHANNELS 3 Zrotation Xrotation Yrotation
                                        End Site
                                        {
                                            OFFSET  -1.818440   0.000000   0.000000
                                        }
                                    }
                                }
                            }
                        }
                    }
                }
            }
        }
    }
    JOINT LeftHip
    {
        OFFSET   9.783040   0.000000   0.000000
        CHANNELS 3 Zrotation Xrotation Yrotation
        JOINT LeftKnee
        {
            OFFSET   0.000032 -41.789100  -0.002222
            CHANNELS 3 Zrotation Xrotation Yrotation
            JOINT LeftAnkle
            {
                OFFSET   0.000087 -41.133200  -0.000135
                CHANNELS 3 Zrotation Xrotation Yrotation
                JOINT LeftToe
                {
                    OFFSET   0.000000  -6.358960  14.674500
                    CHANNELS 3 Zrotation Xrotation Yrotation
                    End Site
                    {
                        OFFSET   0.000000   0.000000   3.913200
                    }
                }
            }
        }
    }
    JOINT RightHip
    {
        OFFSET  -9.783040   0.000000   0.000000
        CHANNELS 3 Zrotation Xrotation Yrotation
        JOINT RightKnee
        {
            OFFSET   0.000047 -41.789100  -0.000896
            CHANNELS 3 Zrotation Xrotation Yrotation
            JOINT RightAnkle
            {
                OFFSET  -0.000117 -41.133300  -0.000248
                CHANNELS 3 Zrotation Xrotation Yrotation
                JOINT RightToe
                {
                    OFFSET   0.000000  -6.358970  14.674500
                    CHANNELS 3 Zrotation Xrotation Yrotation
                    End Site
                    {
                        OFFSET   0.000000   0.000000   3.913200
                    }
                }
            }
        }
    }
}
MOTION
Frames: 6
Frame Time:   0.016667
  0.516397  89.593200   0.952834  -0.410351   0.207540   1.489990   0.072185   1.246620  -1.164130   0.169753   2.491510  -2.330660   1.386250  -1.144390   0.029145   2.292960  -2.316140   0.847551  -5.052290   2.496910  -0.716268 -69.884100  13.800500  -6.035310  -1.730560  -4.757770  -7.253840   2.528400  -8.464850   1.463250  41.967400  29.747300 -65.369200 -22.472400   0.012484   0.006778  -6.240500   0.005531   0.005411 -29.503700   3.116540  -5.483720 -24.261800   0.001100   0.004269 -16.983200   0.000695   0.001552 -27.257300  -0.092830   0.180191 -28.078300   0.000498   0.007578 -18.700100   0.002776   0.000159 -26.998500  -1.977950   3.874150 -27.298300  -0.000641  -0.003156 -18.189000   0.005212  -0.008006 -28.755800  -3.062890   5.561390 -43.356900   0.003966  -0.005877 -28.875700   0.002220  -0.003901  10.717400   0.402699   5.256950  69.926600   5.952560   0.167936  -0.884026  -4.876770   8.071310  -1.914300  -3.441940   3.396700 -51.032200  36.811700  73.844400  12.848800   0.007726  -0.008109   1.421700  -0.005549   0.006789  27.127500   8.227930  15.586200  23.119300   0.001434   0.004192  16.183500  -0.007621   0.002463  27.128100   5.681060  10.928900  30.047700   0.004984   0.005405  20.011800   0.003471   0.002643  27.626300   3.639430   6.919590  31.064200  -0.006282  -0.001630  20.688700  -0.004603  -0.004387  28.025800   1.550490   2.910190  42.097600  -0.006986  -0.007210  28.037000  -0.011598  -0.008835   1.029930   2.343450   1.760580   0.699982   0.135162   7.833880  -3.420690  -2.879830   2.458300   0.000000   0.000000   0.000000  -0.420907  -0.593422  -3.726070   1.825620   1.964960  -8.232750  -3.786750  -1.959290  -4.758990   0.000000   0.000000  -0.000000
  0.516402  89.593100   0.957240  -0.410262   0.204106   1.489990   0.072297   1.251760  -1.161220   0.170021   2.501800  -2.324850   1.388090  -1.148730   0.029019   2.294660  -2.325340   0.832464  -5.052350   2.490520  -0.716825 -69.877900  13.835800  -6.046360  -1.734490  -4.788820  -7.253700   2.514020  -8.449540   1.459570  41.973200  29.756100 -65.380100 -22.465900   0.012486   0.006772  -6.235380   0.005528   0.005411 -29.499300   3.116460  -5.487510 -24.258100   0.001102   0.004270 -16.980700   0.000696   0.001555 -27.257200  -0.087382   0.169625 -28.072300   0.000498   0.007575 -18.696100   0.002774   0.000156 -26.999100  -1.972530   3.863400 -27.296200  -0.000635  -0.003155 -18.184000   0.005210  -0.008002 -28.752200  -3.058360   5.554040 -43.350900   0.003962  -0.005874 -28.871700   0.002220  -0.003899  10.718800   0.387491   5.262710  69.927300   5.979540   0.166958  -0.874318  -4.893100   8.038410  -1.923120  -3.436540   3.395190 -51.043200  36.818100  73.860900  12.854500   0.007724  -0.008102   1.421590  -0.005551   0.006785  27.125900   8.228150  15.586800  23.118100   0.001426   0.004193  16.182600  -0.007623   0.002465  27.128300   5.681090  10.928700  30.028900   0.004991   0.005406  19.999200   0.003469   0.002643  27.626200   3.639370   6.919750  31.062700  -0.006281  -0.001624  20.687700  -0.004607  -0.004387  28.026000   1.550530   2.909970  42.097900  -0.006984  -0.007206  28.037200  -0.011602  -0.008834   1.030140   2.332400   1.760080   0.699922   0.170996   7.829300  -3.422510  -2.895790   2.467980   0.000000   0.000000  -0.000000  -0.420872  -0.584743  -3.731420   1.826780   1.964170  -8.225370  -3.787340  -1.962700  -4.760860   0.000000   0.000000   0.000000
  0.516408  89.593100   0.964348  -0.410114   0.198414   1.489990   0.072418   1.260510  -1.153450   0.170270   2.519290  -2.309330   1.392170  -1.157190   0.028892   2.298480  -2.342950   0.802987  -5.052320   2.478680  -0.720746 -69.868600  13.887800  -6.063020  -1.739040  -4.824510  -7.253620   2.499330  -8.434250   1.453680  41.979100  29.764800 -65.391000 -22.454500   0.012489   0.006767  -6.227260   0.005521   0.005415 -29.490900   3.116330  -5.493690 -24.251200   0.001108   0.004275 -16.975800   0.000697   0.001564 -27.257200  -0.079755   0.154836 -28.062400   0.000500   0.007568 -18.689600   0.002769   0.000149 -26.999900  -1.966370   3.851710 -27.291100  -0.000621  -0.003151 -18.175900   0.005206  -0.007990 -28.746400  -3.051970   5.543840 -43.341200   0.003952  -0.005869 -28.865200   0.002220  -0.003894  10.721600   0.356713   5.268470  69.932100   6.036510   0.163183  -0.857366  -4.923300   7.981670  -1.932570  -3.422530   3.391720 -51.052700  36.826700  73.883200  12.860200   0.007723  -0.008090   1.421440  -0.005553   0.006780  27.124300   8.228450  15.587800  23.116900   0.001412   0.004196  16.181800  -0.007632   0.002469  27.128600   5.681170  10.928400  30.010000   0.005014   0.005408  19.986700   0.003466   0.002643  27.626100   3.639240   6.919960  31.061200  -0.006278  -0.001606  20.686700  -0.004616  -0.004387  28.027300   1.550610   2.909760  42.099800  -0.006983  -0.007199  28.038400  -0.011611  -0.008833   1.030270   2.321350   1.759590   0.699880   0.206832   7.821070  -3.424030  -2.911730   2.483450  -0.000000   0.000000   0.000000  -0.420863  -0.576062  -3.739700   1.827730   1.963400  -8.211960  -3.788750  -1.968390  -4.765540  -0.000000   0.000000   0.000000
  0.516373  89.593100   0.969529  -0.411415   0.194122   1.486930   0.072385   1.267700  -1.141060   0.170129   2.533690  -2.284560   1.398990  -1.166890   0.028947   2.304530  -2.362530   0.769696  -5.055360   2.467120  -0.733812 -69.862500  13.915100  -6.072210  -1.741820  -4.828970  -7.257800   2.500460  -8.435140   1.448480  41.974100  29.737200 -65.356900 -22.442700   0.012483   0.006770  -6.221100   0.005509   0.005422 -29.479200   3.116210  -5.499430 -24.241600   0.001120   0.004281 -16.969200   0.000698   0.001575 -27.257100  -0.076489   0.148504 -28.053200   0.000506   0.007557 -18.683500   0.002761   0.000140 -27.000100  -1.965500   3.850610 -27.280900  -0.000599  -0.003146 -18.168600   0.005198  -0.007970 -28.740600  -3.049020   5.539830 -43.332200   0.003935  -0.005863 -28.859300   0.002222  -0.003885  10.724800   0.322088   5.262750  69.946400   6.107090   0.153445  -0.843731  -4.952570   7.933400  -1.929170  -3.403240   3.387710 -51.035900  36.828400  73.887800  12.857500   0.007736  -0.008082   1.421380  -0.005544   0.006797  27.135000   8.228580  15.588000  23.125300   0.001401   0.004200  16.187700  -0.007654   0.002474  27.128800   5.681290  10.928300  30.023700   0.005053   0.005412  19.995800   0.003463   0.002648  27.626100   3.639070   6.920050  31.075700  -0.006273  -0.001578  20.696400  -0.004628  -0.004390  28.042100   1.550720   2.910370  42.122200  -0.006983  -0.007188  28.053300  -0.011623  -0.008834   1.029420   2.340330   1.762330   0.699181   0.186540   7.813130  -3.421610  -2.901970   2.495150  -0.000000   0.000000   0.000000  -0.420962  -0.628798  -3.745650   1.826160   2.027460  -8.198440  -3.790900  -1.972740  -4.773510   0.000000   0.000000   0.000000
  0.516318  89.593000   0.974453  -0.413716   0.189473   1.482400   0.072242   1.275380  -1.125290   0.169594   2.549100  -2.253020   1.404180  -1.177310   0.029027   2.309890  -2.383400   0.732430  -5.063050   2.453360  -0.753410 -69.856800  13.935400  -6.080120  -1.744270  -4.830620  -7.262500   2.505150  -8.441270   1.445500  41.966100  29.707300 -65.322200 -22.432800   0.012474   0.006774  -6.216420   0.005495   0.005436 -29.471500   3.116130  -5.502790 -24.235400   0.001136   0.004289 -16.964800   0.000700   0.001592 -27.257100  -0.075401   0.146397 -28.047900   0.000514   0.007541 -18.679900   0.002750   0.000127 -27.001500  -1.965380   3.850450 -27.273700  -0.000569  -0.003138 -18.164300   0.005188  -0.007944 -28.737200  -3.047940   5.538660 -43.327000   0.003912  -0.005854 -28.855800   0.002223  -0.003872  10.728200   0.278140   5.250930  69.966300   6.192470   0.145559  -0.826016  -4.987820   7.880670  -1.917420  -3.373040   3.380920 -51.020700  36.830000  73.891800  12.853500   0.007755  -0.008075   1.421350  -0.005535   0.006828  27.145700   8.228600  15.588700  23.133700   0.001384   0.004208  16.193600  -0.007682   0.002481  27.128800   5.681420  10.928200  30.039100   0.005107   0.005416  20.006100   0.003459   0.002655  27.626000   3.638920   6.920080  31.090200  -0.006268  -0.001540  20.706100  -0.004642  -0.004397  28.055800   1.550850   2.911750  42.143000  -0.006983  -0.007174  28.067200  -0.011639  -0.008837   1.028480   2.359310   1.767860   0.698479   0.166248   7.804600  -3.419310  -2.892230   2.504680  -0.000000   0.000000   0.000000  -0.421047  -0.681535  -3.749530   1.824570   2.091520  -8.185150  -3.793350  -1.977430  -4.781380  -0.000000   0.000000   0.000000
  0.516282  89.593000   0.979337  -0.415657   0.184159   1.479810   0.071069   1.283910  -1.106870   0.166953   2.566200  -2.216160   1.404900  -1.186680   0.029079   2.310880  -2.402050   0.692911  -5.074670   2.436260  -0.777203 -69.852300  13.948700  -6.087760  -1.743260  -4.832600  -7.263080   2.516510  -8.470850   1.445960  41.962800  29.700700 -65.325400 -22.430800   0.012464   0.006752  -6.215400   0.005480   0.005464 -29.479500   3.116200  -5.496700 -24.241900   0.001149   0.004296 -16.969300   0.000703   0.001614 -27.257100  -0.080494   0.156263 -28.062600   0.000521   0.007522 -18.689700   0.002737   0.000115 -27.004700  -1.970000   3.858940 -27.285500  -0.000534  -0.003130 -18.172100   0.005176  -0.007911 -28.744700  -3.054380   5.548180 -43.339000   0.003885  -0.005842 -28.863800   0.002225  -0.003857  10.728700   0.220169   5.236340  69.986600   6.285840   0.144471  -0.798288  -5.033170   7.825570  -1.889330  -3.320260   3.369470 -51.029600  36.837500  73.902500  12.850900   0.007764  -0.008073   1.421830  -0.005538   0.006857  27.135400   8.225890  15.593800  23.125100   0.001355   0.004220  16.187300  -0.007710   0.002491  27.126400   5.681530  10.930100  30.041200   0.005179   0.005424  20.007400   0.003453   0.002662  27.625900   3.638880   6.918510  31.076800  -0.006271  -0.001493  20.697200  -0.004657  -0.004406  28.052600   1.550980   2.913980  42.138200  -0.006983  -0.007152  28.064000  -0.011661  -0.008839   1.028380   2.350450   1.775140   0.698623   0.203084   7.794780  -3.421180  -2.915310   2.509470  -0.000000   0.000000   0.000000  -0.421558  -0.605388  -3.750380   1.833630   2.027920  -8.174010  -3.795580  -1.983120  -4.785390   0.000000   0.000000   0.000000
